<?xml version="1.0" encoding="UTF-8" standalone="no"?>
<!-- Created with Inkscape (http://www.inkscape.org/) -->

<svg
   version="1.1"
   id="svg8667"
   xml:space="preserve"
   width="682.66669"
   height="682.66669"
   viewBox="0 0 682.66669 682.66669"
   xmlns="http://www.w3.org/2000/svg"
   xmlns:svg="http://www.w3.org/2000/svg"><defs
     id="defs8671"><clipPath
       clipPathUnits="userSpaceOnUse"
       id="clipPath8681"><path
         d="M 0,512 H 512 V 0 H 0 Z"
         id="path8679" /></clipPath></defs><g
     id="g8673"
     transform="matrix(1.3333333,0,0,-1.3333333,0,682.66667)"><g
       id="g8675"><g
         id="g8677"
         clip-path="url(#clipPath8681)"><g
           id="g8683"
           transform="translate(354.2832,481.5654)"><path
             d="m 0,0 c -30.104,13.137 -63.339,20.439 -98.284,20.439 -135.862,-0.001 -246,-110.138 -246,-246.001 0,-34.945 7.302,-68.178 20.438,-98.283 l 77.064,77.064 c -0.982,6.933 -1.501,14.014 -1.501,21.219 0,82.842 67.157,149.999 149.999,149.999 7.204,0 14.287,-0.518 21.22,-1.5 z"
             style="fill:#ffc144;fill-opacity:1;fill-rule:evenodd;stroke:none"
             id="path8685" /></g><g
           id="g8687"
           transform="translate(405.9995,256.0039)"><path
             d="m 0,0 c 0,-82.843 -67.157,-150 -150,-150 -7.204,0 -14.286,0.519 -21.219,1.501 l -77.064,-77.063 c 30.102,-13.138 63.339,-20.439 98.283,-20.439 135.863,0 246.001,110.138 246.001,246.001 0,34.944 -7.301,68.181 -20.438,98.283 L -1.501,21.219 C -0.519,14.286 0,7.204 0,0"
             style="fill:#ffc144;fill-opacity:1;fill-rule:evenodd;stroke:none"
             id="path8689" /></g><g
           id="g8691"
           transform="translate(110.4927,50.3926)"><path
             d="m 0,0 -26.295,-26.296 -60.104,60.105 26.295,26.295"
             style="fill:none;stroke:#000000;stroke-width:20;stroke-linecap:round;stroke-linejoin:round;stroke-miterlimit:22.926;stroke-dasharray:none;stroke-opacity:1"
             id="path8693" /></g><g
           id="g8695"
           transform="translate(58.2778,58.2813)"><path
             d="M 0,0 14.368,14.368"
             style="fill:none;stroke:#000000;stroke-width:20;stroke-linecap:round;stroke-linejoin:round;stroke-miterlimit:22.926;stroke-dasharray:none;stroke-opacity:1"
             id="path8697" /></g><g
           id="g8699"
           transform="translate(176.2314,236.3389)"><path
             d="m 0,0 60.104,-60.104 26.295,26.295"
             style="fill:none;stroke:#000000;stroke-width:20;stroke-linecap:round;stroke-linejoin:round;stroke-miterlimit:22.926;stroke-dasharray:none;stroke-opacity:1"
             id="path8701" /></g><g
           id="g8703"
           transform="translate(196.8916,166.8428)"><path
             d="m 0,0 c 8.265,-8.264 8.265,-21.787 0,-30.052 -8.265,-8.263 -21.787,-8.263 -30.051,0 L -60.104,0.001 c -8.264,8.264 -8.264,21.787 0,30.052 8.265,8.263 21.788,8.263 30.052,0"
             style="fill:none;stroke:#000000;stroke-width:20;stroke-linecap:round;stroke-linejoin:round;stroke-miterlimit:22.926;stroke-dasharray:none;stroke-opacity:1"
             id="path8705" /></g><g
           id="g8707"
           transform="translate(326.376,386.4834)"><path
             d="M 0,0 60.104,-60.104"
             style="fill:none;stroke:#000000;stroke-width:20;stroke-linecap:round;stroke-linejoin:round;stroke-miterlimit:22.926;stroke-dasharray:none;stroke-opacity:1"
             id="path8709" /></g><g
           id="g8711"
           transform="translate(255.1177,315.2246)"><path
             d="m 0,0 45.078,-45.078 c 8.264,-8.265 8.264,-21.787 0,-30.052 -8.265,-8.264 -21.787,-8.264 -30.052,0 l -45.078,45.078"
             style="fill:none;stroke:#000000;stroke-width:20;stroke-linecap:round;stroke-linejoin:round;stroke-miterlimit:22.926;stroke-dasharray:none;stroke-opacity:1"
             id="path8713" /></g><g
           id="g8715"
           transform="translate(304.8252,359.3877)"><path
             d="m 0,0 -5.649,-2.341 c -10.609,-4.394 -15.695,-16.669 -11.299,-27.279 4.394,-10.609 16.67,-15.693 27.279,-11.3 l 5.649,2.341 5.649,2.34 c 10.609,4.394 22.884,-0.691 27.279,-11.299 4.395,-10.61 -0.69,-22.885 -11.299,-27.279 l -5.65,-2.341"
             style="fill:none;stroke:#000000;stroke-width:20;stroke-linecap:round;stroke-linejoin:round;stroke-miterlimit:22.926;stroke-dasharray:none;stroke-opacity:1"
             id="path8717" /></g><g
           id="g8719"
           transform="translate(348.915,409.0225)"><path
             d="M 0,0 75.13,-45.077 30.053,30.053"
             style="fill:none;stroke:#000000;stroke-width:20;stroke-linecap:round;stroke-linejoin:round;stroke-miterlimit:22.926;stroke-dasharray:none;stroke-opacity:1"
             id="path8721" /></g><g
           id="g8723"
           transform="translate(72.9282,133.0352)"><path
             d="M 0,0 86.398,-33.809"
             style="fill:none;stroke:#000000;stroke-width:20;stroke-linecap:round;stroke-linejoin:round;stroke-miterlimit:22.926;stroke-dasharray:none;stroke-opacity:1"
             id="path8725" /></g><g
           id="g8727"
           transform="translate(99.2231,159.3301)"><path
             d="M 0,0 33.809,-86.398"
             style="fill:none;stroke:#000000;stroke-width:20;stroke-linecap:round;stroke-linejoin:round;stroke-miterlimit:22.926;stroke-dasharray:none;stroke-opacity:1"
             id="path8729" /></g><g
           id="g8731"
           transform="translate(487.9067,427.8066)"><path
             d="M 0,0 -26.296,-26.296 -86.4,33.808 -60.104,60.104"
             style="fill:none;stroke:#000000;stroke-width:20;stroke-linecap:round;stroke-linejoin:round;stroke-miterlimit:22.926;stroke-dasharray:none;stroke-opacity:1"
             id="path8733" /></g><g
           id="g8735"
           transform="translate(435.6919,435.6953)"><path
             d="M 0,0 14.367,14.367"
             style="fill:none;stroke:#000000;stroke-width:20;stroke-linecap:round;stroke-linejoin:round;stroke-miterlimit:22.926;stroke-dasharray:none;stroke-opacity:1"
             id="path8737" /></g><g
           id="g8739"
           transform="translate(481.562,354.2871)"><path
             d="m 0,0 c 13.137,-30.103 20.438,-63.339 20.438,-98.283 0,-135.863 -110.138,-246.001 -246,-246.001 -34.945,0 -68.182,7.301 -98.284,20.438 l 77.064,77.064 c 6.933,-0.983 14.015,-1.501 21.22,-1.501 82.842,0 149.999,67.157 149.999,150 0,7.204 -0.519,14.286 -1.5,21.219 z m -358.332,-28.441 c -10.998,-20.859 -17.23,-44.622 -17.23,-69.842 0,-7.205 0.519,-14.286 1.501,-21.22 l -77.064,-77.063 c -13.136,30.104 -20.438,63.337 -20.438,98.283 0,135.862 110.138,246 246.001,246.001 34.944,0 68.179,-7.303 98.283,-20.44 l -77.064,-77.063 c -6.933,0.982 -14.015,1.501 -21.219,1.501 -25.223,0 -48.985,-6.235 -69.847,-17.233"
             style="fill:none;stroke:#000000;stroke-width:20;stroke-linecap:round;stroke-linejoin:round;stroke-miterlimit:22.926;stroke-dasharray:none;stroke-opacity:1"
             id="path8741" /></g><g
           id="g8743"
           transform="translate(149.9263,362.0693)"><path
             d="M 0,0 H 0.007"
             style="fill:none;stroke:#000000;stroke-width:20;stroke-linecap:round;stroke-linejoin:round;stroke-miterlimit:2.613;stroke-dasharray:none;stroke-opacity:1"
             id="path8745" /></g></g></g></g></svg>
