<?xml version="1.0" encoding="UTF-8" standalone="no"?>
<!DOCTYPE svg PUBLIC "-//W3C//DTD SVG 1.1//EN" "http://www.w3.org/Graphics/SVG/1.1/DTD/svg11.dtd">
<svg width="100%" height="100%" viewBox="0 0 861 362" version="1.1" xmlns="http://www.w3.org/2000/svg" xmlns:xlink="http://www.w3.org/1999/xlink" xml:space="preserve" xmlns:serif="http://www.serif.com/" style="fill-rule:evenodd;clip-rule:evenodd;stroke-linejoin:round;stroke-miterlimit:2;">
    <g transform="matrix(1,0,0,1,-529.803,-89.0352)">
        <g transform="matrix(1.52046,0,0,1.52046,-529.519,-902.06)">
            <g transform="matrix(133.872,0,0,133.872,696.577,745.549)">
                <path d="M0.34,-0L0.115,-0.611C0.105,-0.634 0.087,-0.652 0.062,-0.663C0.036,-0.674 0.016,-0.68 0.001,-0.68L0.001,-0.7L0.258,-0.7L0.258,-0.68C0.251,-0.68 0.244,-0.679 0.235,-0.676C0.226,-0.673 0.218,-0.666 0.211,-0.657C0.204,-0.648 0.202,-0.636 0.205,-0.623L0.39,-0.118L0.561,-0.625C0.562,-0.634 0.563,-0.641 0.563,-0.647C0.562,-0.653 0.56,-0.658 0.556,-0.662C0.551,-0.666 0.547,-0.669 0.543,-0.672C0.539,-0.674 0.534,-0.676 0.529,-0.677C0.523,-0.678 0.518,-0.679 0.515,-0.68C0.512,-0.68 0.508,-0.68 0.505,-0.68L0.505,-0.7L0.685,-0.7L0.685,-0.68C0.679,-0.68 0.672,-0.679 0.665,-0.678C0.658,-0.677 0.648,-0.674 0.635,-0.671C0.623,-0.667 0.612,-0.66 0.601,-0.65C0.59,-0.64 0.581,-0.628 0.575,-0.613L0.368,-0L0.34,-0Z" style="fill:white;fill-rule:nonzero;"/>
            </g>
            <g transform="matrix(133.872,0,0,133.872,787.343,745.549)">
                <path d="M0.025,-0L0.025,-0.02C0.03,-0.02 0.037,-0.021 0.045,-0.023C0.052,-0.025 0.061,-0.028 0.071,-0.033C0.081,-0.037 0.089,-0.044 0.096,-0.053C0.103,-0.062 0.106,-0.073 0.106,-0.085L0.106,-0.408C0.106,-0.42 0.103,-0.431 0.096,-0.44C0.089,-0.449 0.081,-0.456 0.071,-0.461C0.061,-0.465 0.052,-0.468 0.045,-0.47C0.037,-0.472 0.03,-0.473 0.025,-0.473L0.025,-0.493L0.191,-0.525L0.191,-0.085C0.191,-0.073 0.194,-0.062 0.201,-0.053C0.208,-0.044 0.216,-0.037 0.226,-0.033C0.236,-0.028 0.245,-0.025 0.253,-0.023C0.261,-0.021 0.267,-0.02 0.272,-0.02L0.272,-0L0.025,-0ZM0.088,-0.647C0.088,-0.662 0.093,-0.675 0.103,-0.685C0.113,-0.695 0.126,-0.7 0.143,-0.7C0.158,-0.7 0.171,-0.695 0.181,-0.685C0.191,-0.675 0.196,-0.662 0.196,-0.647C0.196,-0.639 0.195,-0.631 0.192,-0.625C0.189,-0.618 0.186,-0.612 0.181,-0.607C0.176,-0.602 0.171,-0.599 0.165,-0.596C0.158,-0.593 0.151,-0.592 0.143,-0.592C0.132,-0.592 0.123,-0.594 0.115,-0.599C0.106,-0.604 0.1,-0.61 0.095,-0.619C0.09,-0.627 0.088,-0.636 0.088,-0.647Z" style="fill:white;fill-rule:nonzero;"/>
            </g>
            <g transform="matrix(133.872,0,0,133.872,826.166,745.549)">
                <path d="M0.351,-0.467C0.35,-0.411 0.35,-0.376 0.349,-0.363L0.331,-0.363C0.326,-0.386 0.319,-0.406 0.311,-0.424C0.303,-0.442 0.294,-0.457 0.285,-0.468C0.276,-0.478 0.267,-0.488 0.258,-0.495C0.249,-0.502 0.239,-0.508 0.23,-0.511C0.221,-0.514 0.213,-0.517 0.207,-0.518C0.201,-0.519 0.195,-0.52 0.19,-0.52C0.154,-0.52 0.136,-0.503 0.136,-0.47C0.136,-0.45 0.141,-0.432 0.151,-0.414C0.161,-0.398 0.174,-0.383 0.19,-0.37C0.206,-0.357 0.224,-0.345 0.243,-0.333C0.262,-0.321 0.282,-0.309 0.301,-0.296C0.32,-0.282 0.338,-0.269 0.354,-0.255C0.37,-0.24 0.383,-0.223 0.393,-0.203C0.403,-0.183 0.408,-0.161 0.408,-0.137C0.408,-0.094 0.394,-0.059 0.366,-0.032C0.338,-0.004 0.295,0.01 0.238,0.01C0.21,0.01 0.183,0.005 0.156,-0.005C0.129,-0.014 0.113,-0.019 0.11,-0.019C0.103,-0.019 0.098,-0.017 0.094,-0.014C0.09,-0.011 0.088,-0.006 0.088,-0.001L0.068,-0.001L0.043,-0.208L0.061,-0.208C0.072,-0.177 0.082,-0.152 0.092,-0.131C0.102,-0.11 0.114,-0.089 0.129,-0.068C0.144,-0.047 0.161,-0.032 0.18,-0.021C0.199,-0.011 0.22,-0.006 0.244,-0.006C0.256,-0.006 0.268,-0.008 0.279,-0.011C0.29,-0.014 0.3,-0.02 0.309,-0.027C0.318,-0.034 0.326,-0.045 0.331,-0.058C0.336,-0.07 0.339,-0.086 0.339,-0.103C0.339,-0.119 0.335,-0.134 0.327,-0.148C0.319,-0.162 0.309,-0.174 0.296,-0.185C0.282,-0.196 0.268,-0.207 0.251,-0.218C0.234,-0.229 0.218,-0.24 0.201,-0.25C0.184,-0.259 0.167,-0.27 0.15,-0.283C0.133,-0.296 0.118,-0.309 0.106,-0.322C0.093,-0.335 0.082,-0.35 0.074,-0.369C0.066,-0.387 0.062,-0.406 0.062,-0.427C0.062,-0.441 0.064,-0.454 0.068,-0.465C0.071,-0.475 0.076,-0.485 0.083,-0.493C0.09,-0.501 0.097,-0.508 0.106,-0.514C0.114,-0.519 0.123,-0.524 0.133,-0.527C0.143,-0.53 0.153,-0.533 0.163,-0.534C0.173,-0.535 0.183,-0.536 0.194,-0.536C0.215,-0.536 0.239,-0.53 0.265,-0.519C0.291,-0.508 0.309,-0.502 0.319,-0.502C0.327,-0.502 0.331,-0.511 0.331,-0.528L0.351,-0.528L0.351,-0.467Z" style="fill:white;fill-rule:nonzero;"/>
            </g>
            <g transform="matrix(133.872,0,0,133.872,885.739,745.549)">
                <path d="M0.025,-0L0.025,-0.02C0.03,-0.02 0.037,-0.021 0.045,-0.023C0.052,-0.025 0.061,-0.028 0.071,-0.033C0.081,-0.037 0.089,-0.044 0.096,-0.053C0.103,-0.062 0.106,-0.073 0.106,-0.085L0.106,-0.408C0.106,-0.42 0.103,-0.431 0.096,-0.44C0.089,-0.449 0.081,-0.456 0.071,-0.461C0.061,-0.465 0.052,-0.468 0.045,-0.47C0.037,-0.472 0.03,-0.473 0.025,-0.473L0.025,-0.493L0.191,-0.525L0.191,-0.085C0.191,-0.073 0.194,-0.062 0.201,-0.053C0.208,-0.044 0.216,-0.037 0.226,-0.033C0.236,-0.028 0.245,-0.025 0.253,-0.023C0.261,-0.021 0.267,-0.02 0.272,-0.02L0.272,-0L0.025,-0ZM0.088,-0.647C0.088,-0.662 0.093,-0.675 0.103,-0.685C0.113,-0.695 0.126,-0.7 0.143,-0.7C0.158,-0.7 0.171,-0.695 0.181,-0.685C0.191,-0.675 0.196,-0.662 0.196,-0.647C0.196,-0.639 0.195,-0.631 0.192,-0.625C0.189,-0.618 0.186,-0.612 0.181,-0.607C0.176,-0.602 0.171,-0.599 0.165,-0.596C0.158,-0.593 0.151,-0.592 0.143,-0.592C0.132,-0.592 0.123,-0.594 0.115,-0.599C0.106,-0.604 0.1,-0.61 0.095,-0.619C0.09,-0.627 0.088,-0.636 0.088,-0.647Z" style="fill:white;fill-rule:nonzero;"/>
            </g>
            <g transform="matrix(133.872,0,0,133.872,921.884,745.549)">
                <path d="M0.458,-0.264C0.458,-0.183 0.439,-0.117 0.401,-0.066C0.363,-0.015 0.313,0.01 0.251,0.01C0.189,0.01 0.139,-0.015 0.101,-0.066C0.062,-0.117 0.043,-0.183 0.043,-0.264C0.043,-0.346 0.062,-0.412 0.101,-0.461C0.139,-0.51 0.189,-0.535 0.251,-0.535C0.313,-0.535 0.363,-0.51 0.401,-0.461C0.439,-0.412 0.458,-0.346 0.458,-0.264ZM0.338,-0.456C0.321,-0.499 0.292,-0.521 0.251,-0.521C0.21,-0.521 0.181,-0.499 0.164,-0.456C0.147,-0.412 0.138,-0.348 0.138,-0.264C0.138,-0.223 0.14,-0.188 0.143,-0.157C0.147,-0.126 0.153,-0.099 0.162,-0.076C0.17,-0.052 0.182,-0.034 0.197,-0.022C0.212,-0.01 0.23,-0.004 0.251,-0.004C0.272,-0.004 0.29,-0.01 0.305,-0.022C0.32,-0.034 0.331,-0.052 0.34,-0.076C0.348,-0.1 0.354,-0.127 0.358,-0.158C0.361,-0.188 0.363,-0.223 0.363,-0.264C0.363,-0.348 0.355,-0.412 0.338,-0.456Z" style="fill:white;fill-rule:nonzero;"/>
            </g>
            <g transform="matrix(133.872,0,0,133.872,986.946,745.549)">
                <path d="M0.025,-0L0.025,-0.02C0.03,-0.02 0.037,-0.021 0.045,-0.023C0.052,-0.025 0.061,-0.028 0.071,-0.033C0.081,-0.037 0.089,-0.044 0.096,-0.053C0.103,-0.062 0.106,-0.073 0.106,-0.085L0.106,-0.408C0.106,-0.42 0.103,-0.431 0.096,-0.44C0.089,-0.449 0.081,-0.456 0.071,-0.461C0.061,-0.465 0.052,-0.468 0.045,-0.47C0.037,-0.472 0.03,-0.473 0.025,-0.473L0.025,-0.493L0.191,-0.525L0.191,-0.461C0.246,-0.51 0.3,-0.535 0.354,-0.535C0.443,-0.535 0.488,-0.477 0.488,-0.36L0.488,-0.085C0.488,-0.069 0.494,-0.056 0.506,-0.045C0.518,-0.034 0.53,-0.028 0.541,-0.025C0.552,-0.021 0.562,-0.02 0.569,-0.02L0.569,-0L0.322,-0L0.322,-0.02C0.327,-0.02 0.334,-0.021 0.342,-0.023C0.349,-0.025 0.358,-0.028 0.368,-0.033C0.378,-0.037 0.386,-0.044 0.393,-0.053C0.4,-0.062 0.403,-0.073 0.403,-0.085L0.403,-0.323C0.403,-0.343 0.402,-0.36 0.401,-0.375C0.4,-0.389 0.397,-0.403 0.393,-0.418C0.389,-0.432 0.384,-0.443 0.377,-0.452C0.37,-0.461 0.36,-0.468 0.347,-0.473C0.335,-0.478 0.32,-0.481 0.303,-0.481C0.266,-0.481 0.228,-0.467 0.191,-0.438L0.191,-0.085C0.191,-0.073 0.194,-0.062 0.201,-0.053C0.208,-0.044 0.216,-0.037 0.226,-0.033C0.236,-0.028 0.245,-0.025 0.253,-0.023C0.26,-0.021 0.267,-0.02 0.272,-0.02L0.272,-0L0.025,-0Z" style="fill:white;fill-rule:nonzero;"/>
            </g>
            <g transform="matrix(133.872,0,0,133.872,1065.39,745.549)">
                <path d="M0.865,-0.535C0.883,-0.535 0.898,-0.532 0.911,-0.527C0.924,-0.522 0.933,-0.515 0.939,-0.505C0.945,-0.497 0.949,-0.488 0.952,-0.479C0.954,-0.47 0.955,-0.461 0.955,-0.451C0.955,-0.42 0.941,-0.398 0.913,-0.383C0.884,-0.368 0.853,-0.366 0.818,-0.376C0.829,-0.377 0.839,-0.38 0.848,-0.385C0.857,-0.39 0.864,-0.397 0.87,-0.406C0.875,-0.414 0.878,-0.425 0.878,-0.437C0.878,-0.447 0.876,-0.456 0.871,-0.465C0.866,-0.473 0.859,-0.48 0.85,-0.485C0.84,-0.49 0.828,-0.493 0.815,-0.493C0.806,-0.493 0.796,-0.491 0.787,-0.487C0.777,-0.482 0.77,-0.478 0.765,-0.474C0.761,-0.471 0.754,-0.465 0.745,-0.456C0.735,-0.447 0.73,-0.442 0.729,-0.441L0.729,-0.085C0.729,-0.069 0.735,-0.056 0.747,-0.045C0.759,-0.034 0.771,-0.028 0.782,-0.025C0.793,-0.021 0.803,-0.02 0.81,-0.02L0.81,-0L0.563,-0L0.563,-0.02C0.568,-0.02 0.575,-0.021 0.583,-0.023C0.59,-0.025 0.599,-0.028 0.609,-0.033C0.619,-0.037 0.627,-0.044 0.634,-0.053C0.641,-0.062 0.644,-0.073 0.644,-0.085L0.644,-0.367C0.536,-0.265 0.46,-0.188 0.417,-0.135L0.417,-0.085C0.417,-0.069 0.423,-0.056 0.435,-0.045C0.447,-0.034 0.459,-0.028 0.47,-0.025C0.481,-0.021 0.491,-0.02 0.498,-0.02L0.498,-0L0.332,-0L0.332,-0.049C0.291,-0.01 0.246,0.01 0.195,0.01C0.176,0.01 0.159,0.008 0.142,0.005C0.126,0.002 0.109,-0.004 0.092,-0.012C0.075,-0.02 0.061,-0.033 0.051,-0.051C0.04,-0.068 0.035,-0.09 0.035,-0.115C0.035,-0.137 0.04,-0.158 0.051,-0.177C0.061,-0.196 0.075,-0.212 0.092,-0.226C0.109,-0.239 0.127,-0.252 0.148,-0.265C0.168,-0.277 0.188,-0.289 0.209,-0.302C0.229,-0.314 0.248,-0.327 0.265,-0.34C0.281,-0.353 0.295,-0.368 0.306,-0.385C0.317,-0.402 0.322,-0.421 0.323,-0.441C0.317,-0.466 0.307,-0.485 0.294,-0.498C0.281,-0.511 0.262,-0.517 0.237,-0.517C0.224,-0.517 0.213,-0.514 0.202,-0.508C0.191,-0.502 0.18,-0.492 0.171,-0.479C0.162,-0.466 0.154,-0.454 0.149,-0.445C0.143,-0.435 0.135,-0.42 0.126,-0.401C0.117,-0.381 0.11,-0.367 0.106,-0.36L0.088,-0.36L0.088,-0.475C0.1,-0.488 0.123,-0.501 0.157,-0.515C0.191,-0.528 0.228,-0.535 0.269,-0.535C0.368,-0.535 0.417,-0.477 0.417,-0.36L0.417,-0.157C0.493,-0.24 0.569,-0.316 0.644,-0.387L0.644,-0.408C0.644,-0.42 0.641,-0.431 0.634,-0.44C0.627,-0.449 0.619,-0.456 0.609,-0.461C0.599,-0.465 0.59,-0.468 0.583,-0.47C0.575,-0.472 0.568,-0.473 0.563,-0.473L0.563,-0.493L0.729,-0.525L0.729,-0.464C0.775,-0.511 0.82,-0.535 0.865,-0.535ZM0.208,-0.006C0.255,-0.006 0.296,-0.026 0.332,-0.065L0.332,-0.323C0.332,-0.354 0.331,-0.377 0.33,-0.391C0.327,-0.381 0.322,-0.371 0.316,-0.361C0.309,-0.351 0.302,-0.342 0.295,-0.334C0.287,-0.326 0.279,-0.318 0.27,-0.309C0.261,-0.3 0.253,-0.292 0.244,-0.284C0.234,-0.277 0.225,-0.269 0.216,-0.26C0.207,-0.251 0.198,-0.243 0.19,-0.235C0.181,-0.227 0.173,-0.218 0.166,-0.208C0.159,-0.198 0.152,-0.188 0.147,-0.179C0.142,-0.169 0.138,-0.158 0.135,-0.146C0.132,-0.133 0.13,-0.121 0.13,-0.108C0.13,-0.079 0.136,-0.055 0.148,-0.035C0.16,-0.016 0.18,-0.006 0.208,-0.006Z" style="fill:white;fill-rule:nonzero;"/>
            </g>
            <g transform="matrix(133.872,0,0,133.872,1195.92,745.549)">
                <path d="M0.261,-0L0.251,-0L0.104,-0.44C0.099,-0.453 0.091,-0.465 0.082,-0.474C0.072,-0.484 0.062,-0.491 0.052,-0.495C0.042,-0.498 0.034,-0.501 0.027,-0.502C0.02,-0.504 0.014,-0.505 0.009,-0.505L0.009,-0.525L0.252,-0.525L0.252,-0.505C0.249,-0.505 0.245,-0.504 0.239,-0.503C0.234,-0.502 0.229,-0.5 0.223,-0.497C0.216,-0.494 0.211,-0.49 0.206,-0.485C0.202,-0.48 0.199,-0.473 0.197,-0.466C0.194,-0.459 0.195,-0.45 0.198,-0.44L0.299,-0.125L0.396,-0.447C0.399,-0.46 0.398,-0.47 0.395,-0.478C0.391,-0.487 0.385,-0.493 0.377,-0.497C0.368,-0.5 0.361,-0.502 0.355,-0.503C0.349,-0.504 0.343,-0.505 0.338,-0.505L0.338,-0.525L0.498,-0.525L0.498,-0.505C0.453,-0.505 0.424,-0.481 0.409,-0.432L0.279,-0C0.269,0.037 0.258,0.067 0.245,0.092C0.232,0.117 0.218,0.136 0.203,0.148C0.188,0.161 0.173,0.169 0.16,0.174C0.147,0.179 0.132,0.182 0.116,0.182C0.095,0.182 0.076,0.174 0.06,0.158L0.064,0.037L0.08,0.037C0.08,0.058 0.086,0.079 0.1,0.099C0.113,0.12 0.132,0.13 0.157,0.13C0.164,0.13 0.17,0.129 0.175,0.127C0.18,0.126 0.188,0.121 0.199,0.114C0.209,0.107 0.219,0.093 0.23,0.074C0.241,0.055 0.251,0.03 0.261,-0Z" style="fill:white;fill-rule:nonzero;"/>
            </g>
        </g>
        <g transform="matrix(1.52046,0,0,1.52046,-511.182,-744.89)">
            <g transform="matrix(133.872,0,0,133.872,846.581,745.549)">
                <path d="M0.087,-0L0.089,-0C0.156,-0.001 0.162,-0.062 0.205,-0.301C0.209,-0.22 0.219,-0.032 0.297,-0.034C0.428,-0.037 0.45,-0.578 0.452,-0.699C0.452,-0.71 0.443,-0.719 0.432,-0.719C0.421,-0.719 0.412,-0.71 0.412,-0.699C0.409,-0.49 0.366,-0.075 0.296,-0.074C0.295,-0.074 0.293,-0.074 0.289,-0.078C0.238,-0.13 0.24,-0.437 0.244,-0.519C0.245,-0.53 0.237,-0.539 0.226,-0.54C0.216,-0.541 0.206,-0.534 0.204,-0.524C0.123,-0.084 0.125,-0.041 0.088,-0.04C0.013,-0.038 0.04,-0.487 0.075,-0.66C0.078,-0.671 0.071,-0.682 0.06,-0.684C0.049,-0.686 0.038,-0.679 0.036,-0.668C0.017,-0.573 -0.012,-0.311 0.005,-0.149C0.011,-0.089 0.027,-0 0.087,-0Z" style="fill:rgb(255,199,82);fill-rule:nonzero;"/>
            </g>
            <g transform="matrix(133.872,0,0,133.872,907.091,745.549)">
                <path d="M0.02,-0.141C0.031,-0.141 0.04,-0.15 0.04,-0.16C0.046,-0.267 0.149,-0.386 0.201,-0.375C0.211,-0.373 0.222,-0.379 0.224,-0.39C0.227,-0.401 0.22,-0.412 0.209,-0.414C0.147,-0.428 0.082,-0.357 0.049,-0.303C0.051,-0.332 0.053,-0.363 0.053,-0.393C0.053,-0.404 0.044,-0.413 0.033,-0.413C0.022,-0.413 0.013,-0.404 0.013,-0.393C0.012,-0.317 0.001,-0.239 0,-0.161C0,-0.151 0.009,-0.142 0.02,-0.141Z" style="fill:rgb(255,199,82);fill-rule:nonzero;"/>
            </g>
            <g transform="matrix(133.872,0,0,133.872,937.212,745.549)">
                <path d="M0.079,-0.462C0.089,-0.459 0.1,-0.465 0.103,-0.475L0.112,-0.505C0.119,-0.53 0.08,-0.541 0.073,-0.515C0.071,-0.506 0.068,-0.496 0.065,-0.486C0.062,-0.476 0.068,-0.465 0.079,-0.462ZM0.029,-0.14C0.095,-0.1 0.178,-0.225 0.215,-0.293C0.22,-0.302 0.216,-0.315 0.207,-0.32C0.197,-0.325 0.185,-0.321 0.179,-0.312C0.136,-0.232 0.074,-0.16 0.048,-0.175C0.019,-0.193 0.067,-0.346 0.077,-0.38C0.08,-0.391 0.073,-0.402 0.063,-0.405C0.052,-0.407 0.041,-0.401 0.038,-0.39C0.014,-0.299 -0.029,-0.175 0.029,-0.14Z" style="fill:rgb(255,199,82);fill-rule:nonzero;"/>
            </g>
            <g transform="matrix(133.872,0,0,133.872,937.882,745.549)">
                <path d="M0.199,-0.128L0.2,-0.128C0.211,-0.128 0.219,-0.138 0.219,-0.149C0.21,-0.329 0.216,-0.495 0.237,-0.652L0.47,-0.658C0.481,-0.658 0.49,-0.667 0.49,-0.678C0.49,-0.689 0.481,-0.698 0.469,-0.698L0.242,-0.692C0.249,-0.736 0.257,-0.78 0.265,-0.822C0.268,-0.833 0.261,-0.844 0.25,-0.846C0.239,-0.848 0.229,-0.841 0.226,-0.83C0.217,-0.785 0.209,-0.739 0.202,-0.692L0.019,-0.686C0.008,-0.686 -0.001,-0.677 0,-0.666C0,-0.655 0.009,-0.646 0.02,-0.646L0.196,-0.651C0.176,-0.493 0.17,-0.327 0.179,-0.147C0.179,-0.136 0.188,-0.128 0.199,-0.128Z" style="fill:rgb(255,199,82);fill-rule:nonzero;"/>
            </g>
            <g transform="matrix(133.872,0,0,133.872,975.366,745.549)">
                <path d="M0.079,-0.462C0.089,-0.459 0.1,-0.465 0.103,-0.475L0.112,-0.505C0.119,-0.53 0.08,-0.541 0.073,-0.515C0.071,-0.506 0.068,-0.496 0.065,-0.486C0.062,-0.476 0.068,-0.465 0.079,-0.462ZM0.029,-0.14C0.095,-0.1 0.178,-0.225 0.215,-0.293C0.22,-0.302 0.216,-0.315 0.207,-0.32C0.197,-0.325 0.185,-0.321 0.179,-0.312C0.136,-0.232 0.074,-0.16 0.048,-0.175C0.019,-0.193 0.067,-0.346 0.077,-0.38C0.08,-0.391 0.073,-0.402 0.063,-0.405C0.052,-0.407 0.041,-0.401 0.038,-0.39C0.014,-0.299 -0.029,-0.175 0.029,-0.14Z" style="fill:rgb(255,199,82);fill-rule:nonzero;"/>
            </g>
            <g transform="matrix(133.872,0,0,133.872,998.124,745.549)">
                <path d="M0.016,-0.134C0.025,-0.132 0.035,-0.137 0.038,-0.147C0.083,-0.269 0.132,-0.397 0.152,-0.35C0.168,-0.315 0.136,-0.239 0.193,-0.203C0.254,-0.165 0.33,-0.232 0.365,-0.293C0.371,-0.303 0.367,-0.315 0.358,-0.32C0.348,-0.326 0.336,-0.323 0.331,-0.313C0.308,-0.274 0.251,-0.214 0.215,-0.237C0.181,-0.258 0.209,-0.32 0.189,-0.366C0.18,-0.387 0.162,-0.4 0.142,-0.401C0.099,-0.403 0.077,-0.349 0.049,-0.285C0.053,-0.324 0.056,-0.357 0.06,-0.385C0.062,-0.396 0.054,-0.407 0.043,-0.408C0.032,-0.41 0.022,-0.402 0.021,-0.391C0.01,-0.314 0.004,-0.219 0,-0.155C-0.001,-0.145 0.006,-0.136 0.016,-0.134Z" style="fill:rgb(255,199,82);fill-rule:nonzero;"/>
            </g>
            <g transform="matrix(133.872,0,0,133.872,1032.13,745.549)">
                <path d="M0.039,0.299C0.075,0.315 0.125,0.306 0.172,0.233C0.246,0.117 0.266,-0.01 0.27,-0.147C0.314,-0.191 0.36,-0.232 0.403,-0.273C0.41,-0.281 0.411,-0.294 0.403,-0.302C0.395,-0.31 0.383,-0.31 0.375,-0.302L0.27,-0.203C0.27,-0.257 0.268,-0.312 0.267,-0.369L0.267,-0.373C0.266,-0.384 0.258,-0.392 0.247,-0.392C0.237,-0.393 0.228,-0.385 0.227,-0.375C0.216,-0.286 0.15,-0.181 0.102,-0.161C0.035,-0.132 0.082,-0.331 0.196,-0.353C0.207,-0.355 0.214,-0.365 0.212,-0.376C0.21,-0.387 0.199,-0.394 0.188,-0.392C0.063,-0.368 -0.008,-0.18 0.056,-0.13C0.114,-0.084 0.192,-0.175 0.23,-0.252L0.23,-0.164C0.135,-0.069 0.045,0.039 0.01,0.17C-0.004,0.221 -0.01,0.277 0.039,0.299ZM0.055,0.262C0.013,0.244 0.055,0.077 0.228,-0.105C0.221,0.013 0.198,0.116 0.138,0.211C0.11,0.255 0.08,0.273 0.055,0.262Z" style="fill:rgb(255,199,82);fill-rule:nonzero;"/>
            </g>
            <g transform="matrix(133.872,0,0,133.872,1076.17,745.549)">
                <path d="M0.003,-0.149C-0.022,-0.076 0.13,-0.059 0.117,-0.203C0.163,-0.237 0.212,-0.268 0.267,-0.286C0.278,-0.29 0.284,-0.301 0.28,-0.312C0.277,-0.322 0.265,-0.328 0.255,-0.324C0.201,-0.306 0.154,-0.278 0.109,-0.246C0.098,-0.288 0.061,-0.364 0.085,-0.39C0.089,-0.395 0.101,-0.408 0.129,-0.393C0.139,-0.388 0.151,-0.392 0.156,-0.401C0.162,-0.411 0.158,-0.423 0.148,-0.428C0.089,-0.46 0.026,-0.424 0.039,-0.34C0.047,-0.295 0.066,-0.265 0.075,-0.22C0.025,-0.181 0.009,-0.168 0.003,-0.149ZM0.04,-0.135C0.042,-0.142 0.054,-0.152 0.077,-0.171C0.071,-0.135 0.047,-0.13 0.04,-0.135Z" style="fill:rgb(255,199,82);fill-rule:nonzero;"/>
            </g>
        </g>
    </g>
</svg>
