<svg version="1.1" id="Capa_1" xmlns="http://www.w3.org/2000/svg" xmlns:xlink="http://www.w3.org/1999/xlink" x="0px" y="0px" viewBox="0 0 512 512" style="enable-background:new 0 0 512 512;" xml:space="preserve">
<g>
	<g>
		<path style="fill:#EA5B70;" d="M151,434.5v56.632c0,7.383,5.985,13.368,13.368,13.368c3.546,0,6.946-1.408,9.453-3.916&#10;&#9;&#9;&#9;l21.084-21.084l21.084,21.084c2.507,2.507,5.907,3.916,9.453,3.916c7.383,0,13.368-5.985,13.368-13.368V434.5H151z"/>
		<g>
			<path style="fill:#EFEDFF;" d="M152.221,52.5c-33.138,0-60.001,26.863-60.001,60.001s26.863,60.001,60.001,60.001H421V52.5&#10;&#9;&#9;&#9;&#9;H152.221z"/>
			<g>
				<path style="fill:#E8B5B1;" d="M421,142.502H244.793l-93.793,20V434.5l93.793,20H421c16.57,0,30-13.43,30-30V172.502&#10;&#9;&#9;&#9;&#9;&#9;C451,155.932,437.57,142.502,421,142.502z"/>
				<g>
					<path style="fill:#E8B5B1;" d="M421,22.5H244.793l-30,30l30,30H421c16.57,0,30-13.432,30-30S437.57,22.5,421,22.5z"/>
					<path style="fill:#D6948C;" d="M151.636,82.5h93.158c-16.568-16.568-16.568-43.432,0-60h-93.792&#10;&#9;&#9;&#9;&#9;&#9;&#9;C101.294,22.5,61,62.794,61,112.501V364.5c0,49.706,40.294,90,90,90h93.793l-0.24-0.108&#10;&#9;&#9;&#9;&#9;&#9;&#9;c-12.679-5.736-20.681-18.529-20.681-32.445v-88.355l-22.874-33.658v-89.398c0-28.002,15.545-55.37,43.795-68.033H151&#10;&#9;&#9;&#9;&#9;&#9;&#9;c-16.844,0-30.49-13.956-29.987-30.912C121.498,95.274,135.312,82.5,151.636,82.5z"/>
				</g>
			</g>
			<path style="fill:#4C5699;" d="M360.999,469.5c-12.426,0-22.5-10.074-22.5-22.5V22.5c0-8.284,6.716-15,15-15h15&#10;&#9;&#9;&#9;&#9;c8.284,0,15,6.716,15,15V447C383.499,459.426,373.425,469.5,360.999,469.5z"/>
		</g>
		<g>
			<g>
				<path style="fill:#FCE3A0;" d="M269.265,229.927h-26.788c-8.709,0-15.77,7.06-15.77,15.77v119.53h53.467v-20.451&#10;&#9;&#9;&#9;&#9;&#9;c0-5.453,2.354-9.849,6.065-12.796c13.645-10.833,22.395-27.565,22.395-46.341C308.635,259.943,292.185,238.084,269.265,229.927&#10;&#9;&#9;&#9;&#9;&#9;z"/>
				<path style="fill:#FFCE71;" d="M252.156,331.96c-13.548-10.769-22.265-27.356-22.369-45.983&#10;&#9;&#9;&#9;&#9;&#9;c-0.144-25.742,16.447-47.836,39.478-56.05c-6.184-2.201-12.835-3.415-19.766-3.425c-32.627,0.062-59.319,26.849-59.136,59.475&#10;&#9;&#9;&#9;&#9;&#9;c0.104,18.627,8.821,35.214,22.369,45.983c3.721,2.957,6.091,7.352,6.091,12.816v20.451h39.425v-20.451&#10;&#9;&#9;&#9;&#9;&#9;C258.247,339.311,255.877,334.917,252.156,331.96z"/>
			</g>
			<path style="fill:#676FB2;" d="M223.873,412.673c0,6.532,5.295,11.827,11.827,11.827h27.597c6.532,0,11.827-5.295,11.827-11.827&#10;&#9;&#9;&#9;&#9;v-23.655h-51.252V412.673z"/>
			<g>
				<path style="fill:#D4D4FF;" d="M297.808,359.363c0-6.515-5.277-11.827-11.827-11.827h-27.734l-31.54,23.655l31.54,23.655h19.849&#10;&#9;&#9;&#9;&#9;&#9;c6.532,0,11.827-5.295,11.827-11.827s-5.295-11.827-11.827-11.827h7.885C292.527,371.19,297.808,365.881,297.808,359.363z"/>
				<path style="fill:#B9BBF1;" d="M256.117,368.586c-4.301-6.494-3.591-15.329,2.13-21.051H213.35&#10;&#9;&#9;&#9;&#9;&#9;c-6.368,0-12.052,4.894-12.352,11.255c-0.32,6.792,5.296,12.399,12.018,12.399h7.885c-6.722,0-12.134,5.607-11.814,12.399&#10;&#9;&#9;&#9;&#9;&#9;c0.3,6.361,5.779,11.255,12.148,11.255h37.012c-5.721-5.721-6.431-14.557-2.13-21.051&#10;&#9;&#9;&#9;&#9;&#9;C257.163,372.215,257.163,370.166,256.117,368.586z"/>
			</g>
		</g>
	</g>
	<g>
		<g>
			<g>
				<g>
					<g>
						<g>
							
								<path style="fill:none;stroke:#000000;stroke-width:15;stroke-linecap:round;stroke-linejoin:round;stroke-miterlimit:10;" d="&#10;&#9;&#9;&#9;&#9;&#9;&#9;&#9;&#9;M338.499,22.5H151.001C101.376,22.5,61,62.874,61,112.501V364.5c0,49.625,40.375,90,90,90h188.784"/>
							<path style="fill:none;stroke:#000000;stroke-width:15;stroke-linejoin:round;stroke-miterlimit:10;" d="M383.499,82.5H421&#10;&#9;&#9;&#9;&#9;&#9;&#9;&#9;&#9;c16.57,0,30-13.432,30-30s-13.43-30-30-30h-37.501"/>
							
								<path style="fill:none;stroke:#000000;stroke-width:15;stroke-linecap:round;stroke-linejoin:round;stroke-miterlimit:10;" d="&#10;&#9;&#9;&#9;&#9;&#9;&#9;&#9;&#9;M338.499,142.502H151c-16.543,0-30-13.461-30-30.004c0-16.539,13.457-29.998,30-29.998h187.499"/>
							
								<path style="fill:none;stroke:#000000;stroke-width:15;stroke-linecap:round;stroke-linejoin:round;stroke-miterlimit:10;" d="&#10;&#9;&#9;&#9;&#9;&#9;&#9;&#9;&#9;M360.999,469.5c-12.426,0-22.5-10.074-22.5-22.5V22.5c0-8.284,6.716-15,15-15h15c8.284,0,15,6.716,15,15V447&#10;&#9;&#9;&#9;&#9;&#9;&#9;&#9;&#9;C383.499,459.426,373.425,469.5,360.999,469.5z"/>
						</g>
						<path style="fill:none;stroke:#000000;stroke-width:15;stroke-linejoin:round;stroke-miterlimit:10;" d="M383.499,454.5H421&#10;&#9;&#9;&#9;&#9;&#9;&#9;&#9;c16.57,0,30-13.43,30-30V172.502c0-16.57-13.43-30-30-30h-37.501"/>
						
							<line style="fill:none;stroke:#000000;stroke-width:15;stroke-linejoin:round;stroke-miterlimit:10;stroke-dasharray:1000,30,1000,0,1000;" x1="421" y1="142.502" x2="421" y2="82.5"/>
						
							<path style="fill:none;stroke:#000000;stroke-width:15;stroke-linecap:round;stroke-linejoin:round;stroke-miterlimit:10;" d="&#10;&#9;&#9;&#9;&#9;&#9;&#9;&#9;M338.499,202.502H151c-49.626,0-90-40.373-90-90.001"/>
						
							<line style="fill:none;stroke:#000000;stroke-width:15;stroke-linecap:round;stroke-linejoin:round;stroke-miterlimit:10;" x1="406" y1="202.502" x2="384.499" y2="202.502"/>
					</g>
					
						<line style="fill:none;stroke:#000000;stroke-width:15;stroke-linejoin:round;stroke-miterlimit:10;" x1="421" y1="112.498" x2="383.499" y2="112.498"/>
				</g>
				
					<line style="fill:none;stroke:#000000;stroke-width:15;stroke-linecap:round;stroke-linejoin:round;stroke-miterlimit:10;" x1="336.201" y1="112.498" x2="272.903" y2="112.498"/>
				
					<line style="fill:none;stroke:#000000;stroke-width:15;stroke-linecap:round;stroke-linejoin:round;stroke-miterlimit:10;" x1="165.701" y1="112.498" x2="121" y2="112.498"/>
			</g>
			<path style="fill:none;stroke:#000000;stroke-width:15;stroke-linecap:round;stroke-linejoin:round;stroke-miterlimit:10;" d="&#10;&#9;&#9;&#9;&#9;M151,454.5v36.632c0,7.383,5.985,13.368,13.368,13.368c3.545,0,6.946-1.408,9.453-3.916l21.084-21.084l21.084,21.084&#10;&#9;&#9;&#9;&#9;c2.507,2.507,5.908,3.916,9.453,3.916c7.383,0,13.368-5.985,13.368-13.368V454.5"/>
		</g>
		<g>
			<path style="fill:none;stroke:#000000;stroke-width:15;stroke-linecap:round;stroke-linejoin:round;stroke-miterlimit:10;" d="&#10;&#9;&#9;&#9;&#9;M284.981,347.536h-70.63c-6.368,0-11.848,4.894-12.148,11.255c-0.32,6.792,5.092,12.399,11.814,12.399h7.885&#10;&#9;&#9;&#9;&#9;c-6.722,0-12.134,5.607-11.814,12.399c0.3,6.361,5.779,11.255,12.148,11.255h54.86c6.532,0,11.827-5.295,11.827-11.828&#10;&#9;&#9;&#9;&#9;c0-6.532-5.295-11.827-11.827-11.827h7.885c6.546,0,11.827-5.309,11.827-11.827C296.808,352.849,291.531,347.536,284.981,347.536&#10;&#9;&#9;&#9;&#9;z"/>
			<path style="fill:none;stroke:#000000;stroke-width:15;stroke-linecap:round;stroke-linejoin:round;stroke-miterlimit:10;" d="&#10;&#9;&#9;&#9;&#9;M280.175,347.536c0-5.416,0.169-10.875,6.065-15.555c13.645-10.833,22.395-27.565,22.395-46.341&#10;&#9;&#9;&#9;&#9;c0-32.734-26.659-59.089-59.137-59.137c-32.626,0.062-59.319,26.849-59.136,59.475c0.104,18.627,8.821,35.214,22.369,45.983&#10;&#9;&#9;&#9;&#9;c6.068,4.822,6.091,10.629,6.091,15.576"/>
			<path style="fill:none;stroke:#000000;stroke-width:15;stroke-linecap:round;stroke-linejoin:round;stroke-miterlimit:10;" d="&#10;&#9;&#9;&#9;&#9;M223.873,394.845v17.828c0,6.532,5.295,11.827,11.827,11.827h27.597c6.532,0,11.827-5.296,11.827-11.827v-17.828"/>
		</g>
	</g>
</g>
<g>
</g>
<g>
</g>
<g>
</g>
<g>
</g>
<g>
</g>
<g>
</g>
<g>
</g>
<g>
</g>
<g>
</g>
<g>
</g>
<g>
</g>
<g>
</g>
<g>
</g>
<g>
</g>
<g>
</g>
</svg>