<svg id="Layer_1" enable-background="new 0 0 66 66" height="512" viewBox="0 0 66 66" width="512" xmlns="http://www.w3.org/2000/svg"><g><g><g><path d="m64.03 41.81v-34.83c0-2.76-2.24-5-5-5h-52.05c-2.76 0-5 2.24-5 5v34.83z" fill="#caeae9"/></g><g><path d="m47.35 21.6-14.35 15.87-14.34-15.87z" fill="#6e6ece"/></g><g><path d="m44.75 15.04 2.6 6.56h-28.69l2.59-6.56z" fill="#595ab6"/></g><g><path d="m64.03 41.81v5.41c0 2.76-2.24 5-5 5h-52.05c-2.76 0-5-2.24-5-5v-5.41z" fill="#898795"/></g><g><path d="m35 47.01c0 1.12-.91 2-2 2s-2-.88-2-2c0-1.09.91-1.98 2-1.98s2 .88 2 1.98z" fill="#ffd404"/></g><g><path d="m22.31 59.85h.14c2.55 0 4.61-2.07 4.61-4.61v-3.01h11.89v3.01c0 2.55 2.07 4.61 4.61 4.61h.14z" fill="#caeae9"/></g><g opacity=".12"><path d="m38.95 55.23v-3.01h-3.79c.37 2.66-1.7 5.03-4.38 5.03h-4.21c-.75 1.53-2.31 2.59-4.13 2.59h21.12c-2.55.01-4.61-2.06-4.61-4.61z"/></g><g><path d="m47.3 64.03h-28.6c0-1.14.48-2.19 1.23-2.94.75-.77 1.79-1.23 2.94-1.23h20.25c2.32-.01 4.18 1.87 4.18 4.17z" fill="#898795"/></g><g><path d="m38.73 21.6-5.73 15.87-5.72-15.87z" fill="#9d9de1"/></g><g><path d="m21.25 15.04 5.84 6.56 5.81-6.55" fill="#9d9de1"/></g><g><path d="m32.9 15.04 5.83 6.56 5.82-6.55" fill="#9d9de1"/></g><g opacity=".12"><path d="m60.04 2.08c.07.33.1.67.1 1.02 0 24.99-20.26 45.25-45.25 45.25h-11.79c-.35 0-.69-.04-1.01-.1.47 2.27 2.48 3.99 4.9 3.99h52.05c2.76 0 5-2.24 5-5v-40.26c-.01-2.42-1.72-4.43-4-4.9z"/></g></g><g><g><g><g><g><g><g><g><g><path d="m59.02 53.19h-52.04c-3.3 0-5.98-2.68-5.98-5.97v-40.24c0-3.3 2.68-5.98 5.98-5.98h52.04c3.3 0 5.98 2.68 5.98 5.98v40.24c0 3.29-2.68 5.97-5.98 5.97zm-52.04-50.25c-2.23 0-4.04 1.81-4.04 4.03v40.24c0 2.23 1.81 4.04 4.04 4.04h52.04c2.23 0 4.03-1.81 4.03-4.04v-40.23c0-2.23-1.81-4.03-4.03-4.03h-52.04z"/></g><g><path d="m59.02 53.19h-52.04c-3.3 0-5.98-2.68-5.98-5.97v-5.41c0-.54.43-.97.97-.97h62.05c.54 0 .97.43.97.97v5.41c.01 3.29-2.67 5.97-5.97 5.97zm-56.08-10.41v4.44c0 2.23 1.81 4.04 4.04 4.04h52.04c2.23 0 4.03-1.81 4.03-4.04v-4.44z"/></g><g><path d="m33 49.98c-1.64 0-2.97-1.33-2.97-2.97 0-1.63 1.33-2.95 2.97-2.95s2.97 1.32 2.97 2.95-1.33 2.97-2.97 2.97zm0-3.98c-.57 0-1.03.45-1.03 1.01 0 .57.46 1.03 1.03 1.03s1.03-.46 1.03-1.03c0-.56-.46-1.01-1.03-1.01z"/></g></g></g></g></g><g><g><path d="m43.7 60.82h-21.39c-.54 0-.97-.43-.97-.97s.43-.97.97-.97h.14c2.01 0 3.64-1.63 3.64-3.64v-3.01c0-.54.43-.97.97-.97h11.89c.54 0 .97.43.97.97v3.01c0 2.01 1.63 3.64 3.64 3.64h.14c.54 0 .97.43.97.97s-.43.97-.97.97zm-17.03-1.94h12.66c-.84-.98-1.36-2.25-1.36-3.64v-2.04h-9.95v2.04c.01 1.38-.5 2.66-1.35 3.64z"/></g><g><path d="m47.3 65h-28.6c-.54 0-.97-.43-.97-.97 0-1.34.55-2.67 1.52-3.63.95-.98 2.24-1.52 3.63-1.52h20.25c2.84 0 5.15 2.31 5.15 5.15-.01.53-.44.97-.98.97zm-27.47-1.94h26.36c-.41-1.3-1.63-2.24-3.06-2.24h-20.25c-.86 0-1.66.33-2.25.94-.37.37-.65.82-.8 1.3z"/></g></g></g></g></g><g><g><path d="m21.73 9.2h-12.53c-.54 0-.97-.43-.97-.97s.44-.97.97-.97h12.53c.54 0 .97.43.97.97s-.43.97-.97.97z"/></g><g><path d="m17.35 13.79h-1.53c-.54 0-.97-.43-.97-.97s.43-.97.97-.97h1.53c.54 0 .97.43.97.97s-.43.97-.97.97z"/></g><g><path d="m12.53 13.79h-3.33c-.54 0-.97-.43-.97-.97s.43-.97.97-.97h3.33c.54 0 .97.43.97.97s-.43.97-.97.97z"/></g></g><g><g><path d="m33 38.44c-.27 0-.54-.12-.72-.32l-14.34-15.87c-.26-.28-.32-.69-.17-1.04.16-.35.5-.58.89-.58h28.69c.38 0 .73.23.89.58s.09.76-.17 1.04l-14.35 15.87c-.18.2-.44.32-.72.32zm-12.16-15.88 12.16 13.46 12.16-13.46z"/></g><g><path d="m33 38.44c-.41 0-.77-.26-.91-.64l-5.72-15.87c-.11-.3-.06-.63.12-.89s.48-.41.79-.41h11.45c.32 0 .61.15.79.41s.23.59.12.89l-5.73 15.87c-.13.38-.5.64-.91.64zm-4.34-15.88 4.34 12.05 4.34-12.04h-8.68z"/></g><g><path d="m47.35 22.56h-28.69c-.32 0-.62-.16-.8-.43s-.22-.6-.1-.9l2.6-6.56c.15-.37.5-.61.9-.61h23.5c.4 0 .75.24.9.61l2.6 6.56c.12.3.08.64-.1.9-.19.28-.49.43-.81.43zm-27.27-1.93h25.84l-1.83-4.62h-22.18z"/></g><g><path d="m27.09 22.57c-.28 0-.54-.12-.73-.33l-5.83-6.57c-.36-.4-.32-1.01.08-1.37s1.01-.32 1.37.08l5.11 5.75 5.09-5.74c.36-.4.97-.44 1.37-.08s.44.97.08 1.37l-5.82 6.55c-.18.22-.45.34-.72.34z"/></g><g><path d="m38.73 22.57c-.28 0-.54-.12-.73-.33l-5.83-6.57c-.36-.4-.32-1.01.08-1.37s1.01-.32 1.37.08l5.1 5.75 5.09-5.74c.36-.4.97-.44 1.37-.08s.44.97.08 1.37l-5.82 6.55c-.17.22-.43.34-.71.34z"/></g></g></g></g></svg>