<svg clip-rule="evenodd" fill-rule="evenodd" height="512" image-rendering="optimizeQuality" shape-rendering="geometricPrecision" text-rendering="geometricPrecision" viewBox="0 0 173.397 173.397" width="512" xmlns="http://www.w3.org/2000/svg"><g id="Layer_x0020_1"><g id="_393384272"><path id="_393385400" d="m88.3701 15.3594v5.1454c0 .9226-.749 1.6711-1.6715 1.6711-37.9677-.0001-68.8579 30.8901-68.8579 68.8579.0004 37.9713 30.8902 68.8615 68.8579 68.8615 37.4114 0 67.9493-29.9886 68.8405-67.1904l-13.6707-.0001c-.8843 29.6647-25.2927 53.526-55.1698 53.526-30.434 0-55.1935-24.7629-55.1935-55.197s24.7593-55.1936 55.1935-55.1936c.9226 0 1.6711.7486 1.6711 1.6712l.0004 5.1454 16.6648-13.6506-16.6648-13.6468zm-1.6708 147.878c-39.8131 0-72.2008-32.3906-72.2008-72.2035.0002-39.2524 31.4856-71.2879 70.5291-72.1791l.0001-7.0219c0-.6476.3724-1.2359.9572-1.511.5821-.2785 1.2741-.1914 1.7722.2159l20.9758 17.1771c.3862.3167.6121.7937.6121 1.2915.0005.5013-.2264.9783-.6127 1.2951l-20.9747 17.177c-.4983.4073-1.1878.4944-1.7727.2159-.5843-.2751-.9573-.8634-.9573-1.511l.0001-6.9731c-27.8231.8842-50.1806 23.7916-50.1806 51.8236.0004 28.5925 23.259 51.8549 51.8515 51.8549 28.593 0 51.8515-23.2624 51.8515-51.8549.0002-.9225.7485-1.671 1.6711-1.671l17.0071-.0001c.9259 0 1.6704.7486 1.6704 1.6711.0003 39.8129-32.3873 72.2035-72.1994 72.2035z"/><path id="_393385376" d="m115.006 34.5487h.004zm5.1112-1.2777c-.3658 0-.7351.0487-1.1007.1462-1.0895.2924-1.9983.9922-2.5622 1.967l.0001-.0001c-.564.9783-.7138 2.1168-.4248 3.2065.2924 1.0896.9921 1.9982 1.9704 2.5622.9751.564 2.1132.7137 3.2028.4247 1.0904-.2924 2.0018-.9921 2.5623-1.9704 1.1663-2.0158.4734-4.6023-1.5456-5.7687-.6469-.3725-1.3719-.5674-2.1023-.5674zm-.0173 11.7948c-1.3128 0-2.6082-.3446-3.771-1.0165-3.6132-2.0854-4.8565-6.7225-2.7712-10.3327v-.0001c1.0097-1.751 2.6424-3.0043 4.5954-3.5265 1.95-.5223 3.9897-.2541 5.7374.7554 3.614 2.0854 4.8565 6.7226 2.7711 10.3327-1.0096 1.7511-2.6423 3.0045-4.592 3.5266-.6537.1741-1.3159.2611-1.9697.2611z"/><path id="_393385424" d="m133.934 50.824c-.8985.6824-1.4731 1.6746-1.6263 2.7921-.1495 1.1175.1462 2.228.8286 3.1228.6865.8981 1.678 1.476 2.7955 1.6257 1.1182.1497 2.2246-.1427 3.1228-.825.8983-.6859 1.4726-1.678 1.6257-2.7955.1499-1.1176-.1461-2.2281-.8285-3.1263-1.4099-1.8487-4.0662-2.2072-5.9183-.7937zm2.5763 10.9212c-.3415 0-.683-.0209-1.0276-.0698-2.0015-.268-3.7772-1.302-5.0027-2.9068-1.2248-1.6085-1.7511-3.5963-1.4831-5.5981.2717-2.0018 1.302-3.7807 2.9104-5.0062h.0003c3.318-2.5276 8.0731-1.8869 10.6005 1.4273 1.2258 1.6084 1.751 3.5963 1.4831 5.5981-.2714 2.0017-1.3021 3.7807-2.9104 5.0061-1.33 1.0131-2.9244 1.5494-4.5705 1.5494z"/><path id="_393384752" d="m143.693 70.1874h.003zm1.4968 1.4796c-.3587 0-.7212.0452-1.0763.1392-1.0895.282-2.0053.9783-2.5762 1.9497-.5703.9747-.7276 2.1096-.4421 3.2028.2854 1.0896.9816 2.0052 1.953 2.5761.9753.5675 2.1097.7243 3.2028.4422 2.253-.5918 3.6033-2.9035 3.015-5.156-.2849-1.0895-.9783-2.0052-1.9497-2.5761-.6578-.383-1.3856-.5779-2.1265-.5779zm-.0211 11.7914c-1.3261 0-2.6322-.3516-3.8089-1.0409-1.744-1.0201-2.9871-2.6598-3.4953-4.6128-.5117-1.9565-.2333-3.9932.7902-5.7373 1.0206-1.7442 2.6598-2.9836 4.6128-3.4953 1.9568-.5118 3.9932-.2298 5.7374.7902 1.7448 1.02 2.9836 2.6599 3.4953 4.6128.5117 1.9565.2296 3.9931-.7903 5.7373-1.0197 1.7442-2.6598 2.9836-4.6128 3.4953-.6407.1671-1.2847.2507-1.9284.2507z"/><path id="_393385064" d="m68.3762 68.2203h36.6486v-5.9669h-36.6486zm38.3194 3.3423h-39.9903c-.9258 0-1.6712-.7485-1.6712-1.6711l.0005-9.3092c0-.9226.7445-1.671 1.6704-1.671l39.9906-.0001c.9227 0 1.671.7486 1.671 1.6711l.0005 9.3092c0 .9225-.749 1.6711-1.6715 1.6711z"/><path id="_393384824" d="m68.3762 122.864h36.6486v-5.967h-36.6486zm38.3194 3.3421h-39.9903c-.9258 0-1.6712-.7484-1.6712-1.671l.0005-9.3092c0-.9225.7445-1.671 1.6704-1.671h39.9906c.9227 0 1.671.7485 1.671 1.671l.0005 9.3092c0 .9226-.749 1.6711-1.6715 1.671z"/><path id="_393384296" d="m73.5045 116.897c-.9228 0-1.6713-.7485-1.6713-1.6711l.0005-5.8627c0-6.6598 4.1911-12.6407 8.1494-16.8044-3.9579-4.1638-8.1499-10.1448-8.1499-16.808l.0005-5.8592c0-.9225.748-1.6711 1.6705-1.6711.923-.0001 1.6711.7486 1.6711 1.6711v5.8592c0 6.1655 4.5257 11.8958 8.3239 15.6138.3207.3134.5014.7451.5014 1.1942.0002.449-.181.8807-.5014 1.1941-3.798 3.7181-8.3239 9.4448-8.3239 15.6103v5.8627c0 .9226-.7485 1.6711-1.6708 1.6711zm26.3888 0c-.9227 0-1.6713-.7485-1.6713-1.6711l.0006-5.8627c0-6.1655-4.5264-11.8922-8.3246-15.6103-.3201-.3134-.5013-.7451-.5013-1.1941.0003-.4491.181-.8808.5013-1.1942 3.7986-3.718 8.324-9.4483 8.324-15.6138l.0006-5.8592c0-.9225.7479-1.6711 1.6704-1.6711.9261-.0001 1.6711.7486 1.6711 1.6711v5.8592c0 6.6632-4.1916 12.6442-8.1499 16.808 3.9584 4.1637 8.1499 10.1446 8.1499 16.8044v5.8627c0 .9226-.7451 1.6711-1.6708 1.6711z"/></g><path d="m88.3701 42.6568 16.6648-13.6506-16.6648-13.6468v5.1454c0 .9226-.749 1.6711-1.6715 1.6711-37.9677-.0001-68.8579 30.8901-68.8579 68.8579.0004 37.9713 30.8902 68.8615 68.8579 68.8615 37.4114 0 67.9493-29.9886 68.8405-67.1904l-13.6707-.0001c-.8843 29.6647-25.2927 53.526-55.1698 53.526-30.434 0-55.1935-24.7629-55.1935-55.197s24.7593-55.1936 55.1935-55.1936c.9226 0 1.6711.7486 1.6711 1.6712z" fill="#e57373"/><path d="m98.2224 71.5626h-23.0471v4.1881c0 6.1655 4.5257 11.8958 8.3239 15.6138.3207.3134.5014.7451.5014 1.1942.0002.449-.181.8807-.5014 1.1941-3.798 3.7181-8.3239 9.4448-8.3239 15.6103v4.1917h23.0469l.0004-4.1917c0-6.1655-4.5264-11.8922-8.3246-15.6103-.3201-.3134-.5013-.7451-.5013-1.1941.0003-.4491.181-.8808.5013-1.1942 3.7986-3.718 8.324-9.4483 8.324-15.6138z" fill="#c8e3f8"/><path d="m73.5042 68.2204h26.3888l5.132-.0001v-5.9669h-36.6488v5.9669z" fill="#ffe082"/><path d="m99.8933 116.897h-26.3888-5.1283v5.967h36.6488v-5.967z" fill="#ffe082"/><g fill="#ffcc80"><path d="m141.095 76.9587c.2854 1.0896.9816 2.0052 1.953 2.5761.9753.5675 2.1097.7243 3.2028.4422 2.253-.5918 3.6033-2.9035 3.015-5.156-.2849-1.0895-.9783-2.0052-1.9497-2.5761-.6578-.383-1.3856-.5779-2.1265-.5779-.3587 0-.7212.0452-1.0763.1392-1.0895.282-2.0053.9783-2.5762 1.9497-.5703.9747-.7276 2.1096-.4421 3.2028z"/><path d="m135.9323 58.3646c1.1182.1497 2.2246-.1427 3.1228-.825.8983-.6859 1.4726-1.678 1.6257-2.7955.1499-1.1176-.1461-2.2281-.8285-3.1263-1.4099-1.8487-4.0662-2.2072-5.9178-.7938-.8985.6824-1.4731 1.6746-1.6263 2.7921-.1495 1.1175.1462 2.228.8286 3.1228.6865.8981 1.678 1.476 2.7955 1.6257z"/><path d="m121.202 41.5775c1.0904-.2924 2.0018-.9921 2.5623-1.9704 1.1663-2.0158.4734-4.6023-1.5456-5.7687-.6469-.3725-1.3719-.5674-2.1023-.5674-.3658 0-.7351.0487-1.1007.1462-1.0895.2924-1.9983.9922-2.5621 1.9669-.564.9783-.7138 2.1168-.4248 3.2065.2924 1.0896.9921 1.9982 1.9704 2.5622.9751.564 2.1132.7137 3.2028.4247z"/></g></g></svg>