<svg id="Layer_1" height="512" viewBox="0 0 256 256" width="512" xmlns="http://www.w3.org/2000/svg"><path d="m217.1 119.22v113.58c0 2.92-2.89 4.96-5.64 3.98-23.11-8.21-63.72-7.41-83.46 2.36v-.01c-19.74-9.76-60.36-10.56-83.47-2.35-2.75.97-5.63-1.07-5.63-3.98v-113.59c0-1.71 1.03-3.25 2.61-3.91 4.8-2.01 10.57-3.58 16.87-4.7 18.37-3.25 41.27-2.69 58.04 1.72v11.49h23.16v-11.49c16.77-4.4 39.67-4.98 58.04-1.71 6.3 1.11 12.06 2.68 16.86 4.7 1.58.66 2.62 2.19 2.62 3.91z" fill="#f2e1d6"/><path d="m229.43 135.59v113.19c0 2.33-1.89 4.22-4.22 4.22h-194.42c-2.33 0-4.22-1.89-4.22-4.22v-113.19c0-2.33 1.89-4.22 4.22-4.22h8.11v101.43c0 2.91 2.88 4.95 5.63 3.98 23.11-8.21 63.73-7.41 83.47 2.35v.01c19.75-9.77 60.35-10.57 83.46-2.36 2.75.98 5.64-1.06 5.64-3.98v-101.43h8.11c2.33 0 4.22 1.89 4.22 4.22z" fill="#fc5d3d"/><g><path d="m202.34 84.5c0 6.35-.8 12.52-2.31 18.41-.66 2.62-1.47 5.19-2.41 7.7-18.37-3.27-41.27-2.69-58.04 1.71v11.49h-23.16v-11.49c-16.77-4.41-39.67-4.97-58.04-1.72-.94-2.5-1.74-5.07-2.41-7.69-1.51-5.89-2.31-12.05-2.31-18.41 0-41.06 33.28-74.34 74.34-74.34s74.34 33.28 74.34 74.34z" fill="#72c2e9"/><path d="m200.03 102.91c-.66 2.62-1.47 5.19-2.41 7.7-18.37-3.27-41.27-2.69-58.04 1.71v11.49h-23.16v-11.49c-16.77-4.41-39.67-4.97-58.04-1.72-.94-2.5-1.74-5.07-2.41-7.69 15.24-2.84 32.55-2.95 46.38-1.3-2.78-3.13-2.62-7.72.05-10.67l19.67-21.71c3.17-3.5 8.68-3.51 11.86 0l19.67 21.71c2.68 2.96 2.82 7.55.05 10.67 13.67-1.62 31.04-1.55 46.38 1.3z" fill="#4ba5c8"/></g><g><g><path d="m43.917 42.228c-3.729-1.228-6.641-2.022-8.591-10.421-.635-2.737-4.548-2.729-5.181 0-1.907 8.213-4.566 9.092-8.591 10.422-2.424.801-2.43 4.248 0 5.051 6.686 2.209 7.444 5.476 8.591 10.421.637 2.743 4.545 2.742 5.182 0 1.905-8.212 4.709-9.139 8.591-10.421 2.423-.802 2.429-4.249-.001-5.052z"/><path d="m36.785 44.837c-1.47 1.04-2.79 2.42-3.93 4.44-.95-1.59-2.25-3.09-4.17-4.4 1.55-1.06 2.94-2.51 4.12-4.64 1.2 2.16 2.57 3.59 3.98 4.6z" fill="#f0c020"/></g><g><path d="m234.447 42.228c-3.729-1.228-6.641-2.022-8.591-10.421-.635-2.737-4.548-2.729-5.181 0-1.907 8.213-4.566 9.092-8.591 10.422-2.424.801-2.43 4.248 0 5.051 6.686 2.209 7.444 5.476 8.591 10.421.637 2.743 4.545 2.742 5.182 0 1.905-8.212 4.709-9.139 8.591-10.421 2.423-.802 2.428-4.249-.001-5.052z"/><path d="m227.315 44.837c-1.47 1.04-2.79 2.42-3.93 4.44-.95-1.59-2.25-3.09-4.17-4.4 1.55-1.06 2.94-2.51 4.12-4.64 1.2 2.16 2.57 3.59 3.98 4.6z" fill="#f0c020"/></g></g><path d="m147.67 96.31h-8.09v27.5h-23.16v-27.5h-8.09l19.67-21.71z" fill="#f0c020"/><path d="m224.09 131.37v101.43c0 7.83-7.74 13.15-14.97 10.58-21.5-7.64-60.15-6.81-78.02 2.03-2.05 1.02-4.46.97-6.47-.13-18.1-8.77-56.5-9.45-77.76-1.91-7.35 2.61-14.97-2.88-14.97-10.57v-101.43h7v101.43c0 2.91 2.88 4.95 5.63 3.98 23.11-8.21 63.73-7.41 83.47 2.35v.01c19.75-9.77 60.35-10.57 83.46-2.36 2.75.98 5.64-1.06 5.64-3.98v-101.43z" fill="#b25035"/><g><path d="m127.095 230.542c-21.388-8.423-55.299-8.691-77.584-3.077-1.333.338-2.697-.475-3.034-1.813-.338-1.339.475-2.698 1.813-3.035 22.992-5.793 57.325-5.541 79.721 2.919 19.226-7.264 46.161-8.219 66.665-5.401 1.367.188 2.324 1.449 2.136 2.817s-1.443 2.324-2.817 2.136c-19.906-2.736-46.597-1.821-65.067 5.454-.59.232-1.244.232-1.833 0zm79.393-3.074c-.931-.235-1.881-.459-2.848-.672-1.348-.298-2.2-1.632-1.902-2.98s1.625-2.2 2.98-1.903c1.016.224 2.013.46 2.992.707 1.339.337 2.15 1.696 1.813 3.035-.338 1.344-1.702 2.15-3.035 1.813z" fill="#fff"/></g><g><path d="m191.063 97.528c-1.362-.227-2.282-1.514-2.056-2.876.155-.936.292-1.897.407-2.857.164-1.371 1.402-2.344 2.779-2.185 1.371.164 2.35 1.409 2.186 2.78-.124 1.035-.272 2.072-.44 3.083-.226 1.357-1.509 2.282-2.876 2.055zm1.25-12.916c-1.339 0-2.448-1.061-2.496-2.41-1.201-33.388-28.353-59.542-61.817-59.542-14.512 0-28.627 5.149-39.745 14.5-1.056.889-2.634.754-3.522-.304-.889-1.057-.753-2.633.304-3.522 12.018-10.107 27.276-15.674 42.963-15.674 36.396 0 65.543 29.034 66.813 64.362.05 1.38-1.028 2.539-2.408 2.588-.031.001-.062.002-.092.002z" fill="#c5e5fe"/></g><path d="m54.749 135.14c17.932-4.28 39.326-4.42 57.45-.494 1.357.295 2.681-.565 2.973-1.914.292-1.35-.564-2.68-1.914-2.973-18.52-4.011-40.689-4.013-59.669.518-1.344.32-2.172 1.669-1.852 3.012.322 1.344 1.671 2.171 3.012 1.851z"/><path d="m196.884 128.229c-15.255-2.205-32.852-1.933-48.84 1.53-1.35.292-2.206 1.623-1.914 2.973.292 1.347 1.62 2.206 2.973 1.914 15.202-3.293 32.188-3.618 47.066-1.468 1.365.195 2.634-.75 2.832-2.117.197-1.367-.75-2.635-2.117-2.832z"/><path d="m51.737 151.831c.321 1.345 1.671 2.171 3.012 1.851 18.434-4.4 39.853-4.307 57.45-.494 1.356.294 2.681-.565 2.973-1.914.292-1.35-.564-2.68-1.914-2.973-18.551-4.019-40.728-4.004-59.669.518-1.344.32-2.172 1.669-1.852 3.012z"/><path d="m196.884 146.771c-15.244-2.204-32.847-1.935-48.84 1.53-1.35.292-2.206 1.623-1.914 2.973.292 1.347 1.62 2.206 2.973 1.914 15.24-3.302 32.231-3.612 47.066-1.468 1.365.196 2.634-.75 2.832-2.117.197-1.366-.75-2.634-2.117-2.832z"/><path d="m51.737 170.374c.321 1.345 1.671 2.171 3.012 1.851 18.436-4.401 39.851-4.307 57.45-.495 1.357.293 2.681-.565 2.973-1.914.292-1.35-.564-2.68-1.914-2.973-18.556-4.019-40.724-4.005-59.669.518-1.344.321-2.172 1.669-1.852 3.013z"/><path d="m196.884 165.313c-15.254-2.204-32.845-1.934-48.84 1.53-1.35.292-2.206 1.623-1.914 2.973.292 1.347 1.62 2.206 2.973 1.914 15.233-3.299 32.212-3.613 47.066-1.468 1.365.197 2.634-.75 2.832-2.117.197-1.367-.751-2.634-2.117-2.832z"/><path d="m51.737 188.916c.321 1.345 1.671 2.171 3.012 1.851 17.932-4.28 39.326-4.42 57.45-.494 1.357.294 2.681-.565 2.973-1.914.292-1.35-.564-2.68-1.914-2.973-18.52-4.011-40.689-4.013-59.669.518-1.344.32-2.172 1.668-1.852 3.012z"/><path d="m196.884 183.856c-15.255-2.205-32.852-1.933-48.84 1.53-1.35.292-2.206 1.623-1.914 2.973.292 1.347 1.62 2.206 2.973 1.914 15.202-3.293 32.188-3.618 47.066-1.468 1.365.198 2.634-.75 2.832-2.117.197-1.367-.75-2.635-2.117-2.832z"/><path d="m51.737 207.458c.321 1.345 1.671 2.171 3.012 1.851 18.434-4.4 39.853-4.307 57.45-.494 1.356.292 2.681-.565 2.973-1.914.292-1.35-.564-2.68-1.914-2.973-18.551-4.019-40.728-4.004-59.669.518-1.344.32-2.172 1.669-1.852 3.012z"/><path d="m196.884 202.398c-15.244-2.204-32.847-1.935-48.84 1.53-1.35.292-2.206 1.623-1.914 2.973.292 1.347 1.62 2.206 2.973 1.914 15.24-3.302 32.231-3.612 47.066-1.468 1.365.199 2.634-.75 2.832-2.117.197-1.366-.75-2.634-2.117-2.832z"/><path d="m225.21 250.5h-20c-1.38 0-2.5 1.12-2.5 2.5s1.12 2.5 2.5 2.5h20c3.705 0 6.72-3.015 6.72-6.72v-113.19c0-3.705-3.015-6.72-6.72-6.72h-5.61v-9.65c0-2.722-1.631-5.162-4.149-6.214-4.149-1.746-9.025-3.189-14.513-4.307 8.725-26.344 2.506-54.991-15.478-75.219-.88-.99-2.54-1.09-3.53-.21-1.03.92-1.12 2.5-.21 3.53 4.435 4.993 8.11 10.535 10.968 16.45h-31.467c-3.581-17.482-10.111-31.376-18.339-39.037 8.594 1.81 16.803 5.181 24.239 10.017 1.151.758 2.687.436 3.46-.73.758-1.182.415-2.69-.73-3.46-12.461-8.1-26.931-12.38-41.851-12.38-.002 0-.004.001-.006.001-51.861.004-89.491 50.874-72.914 101.028-5.506 1.126-10.389 2.569-14.533 4.304-2.507 1.047-4.129 3.47-4.144 6.18 0 .013-.004.024-.004.037v9.66h-5.609c-3.705 0-6.72 3.015-6.72 6.72v113.19c0 3.705 3.015 6.72 6.72 6.72h154.42c1.38 0 2.5-1.12 2.5-2.5s-1.12-2.5-2.5-2.5h-154.42c-.948 0-1.72-.771-1.72-1.72v-113.19c0-.948.771-1.72 1.72-1.72h5.609v24.93c0 1.38 1.12 2.5 2.5 2.5 1.381 0 2.5-1.12 2.5-2.5 0-20.48 0-24.823 0-39.58 0-.003.001-.006.001-.01 0-.702.421-1.331 1.075-1.604 18.095-7.579 49.914-8.492 71.444-3.336v9.54c0 1.381 1.119 2.5 2.5 2.5h9.08v108.99c-20.926-8.324-59.121-8.935-81.801-.878-1.126.396-2.299-.439-2.299-1.622 0-.003-.001-.006-.001-.01v-53.99c0-1.38-1.119-2.5-2.5-2.5-1.38 0-2.5 1.12-2.5 2.5v54c0 .008.002.015.002.023.016 4.613 4.589 7.857 8.965 6.313 24.854-8.831 65.571-6.24 81.464 2.198.759.403 1.619.376 2.278.047 18.865-9.337 58.48-10.427 81.512-2.246 4.371 1.557 8.979-1.69 8.979-6.335v-98.93h5.61c.948 0 1.72.771 1.72 1.72v113.19c.002.949-.77 1.72-1.718 1.72zm-30.346-192.25c6.268 15.967 6.592 33.529 1.103 49.559-10.487-1.678-22.098-2.157-33.172-1.483 2.138-15.566 1.92-32.673-.643-48.075h32.712zm-38.846-5h-56.036c5.158-23.792 15.915-40.59 28.018-40.59s22.859 16.798 28.018 40.59zm-42.909-39.028c-8.224 7.663-14.75 21.553-18.329 39.028h-31.457c9.552-19.689 27.836-34.382 49.786-39.028zm-53.05 93.575c-5.721-16.73-4.968-34.174 1.09-49.547h32.699c-2.554 15.346-2.789 32.446-.641 48.074-11.051-.671-22.65-.195-33.148 1.473zm38.259-1.075c-2.219-15.276-2.167-32.332.687-48.472h57.99c2.852 16.125 2.908 33.184.688 48.474-5.479.52-10.756 1.321-15.603 2.417v-10.331h5.59c2.164 0 3.306-2.575 1.853-4.179l-19.67-21.71c-.947-1.046-2.758-1.046-3.705 0l-19.67 21.71c-1.453 1.604-.312 4.179 1.853 4.179h5.59v10.329c-4.842-1.096-10.119-1.897-15.603-2.417zm20.602-10.412c0-1.381-1.119-2.5-2.5-2.5h-2.451l14.031-15.486 14.031 15.486h-2.451c-1.381 0-2.5 1.119-2.5 2.5v25h-18.16c0-9.418 0-15.772 0-25zm95.68 136.49c0 1.198-1.183 2.021-2.303 1.624-22.687-8.059-60.877-7.445-81.797.885v-108.999h9.08c1.381 0 2.5-1.119 2.5-2.5v-9.539c22.597-5.403 54.131-3.936 71.437 3.346.658.275 1.083.904 1.083 1.604z"/><path d="m174.58 26.5c-.909 1.052-.782 2.631.26 3.53 1.058.898 2.635.774 3.53-.27.899-1.04.779-2.62-.271-3.52 0-.01 0-.01-.01-.01-.999-.86-2.65-.73-3.509.27z"/><circle cx="38.899" cy="168.8" r="2.5"/><circle cx="195.21" cy="253" r="2.5"/></svg>